<svg width="45" height="44" viewBox="0 0 45 44" fill="none" xmlns="http://www.w3.org/2000/svg">
<circle cx="22.5" cy="21.9998" r="1.83333" fill="url(#paint0_linear_297_1443)"/>
<path d="M22.5003 4.6665C24.4487 4.66668 26.4816 6.27269 28.0872 9.48389C29.6629 12.6354 30.6663 17.0588 30.6663 21.9995C30.6663 26.9405 29.663 31.3646 28.0872 34.5161C26.4816 37.7273 24.4487 39.3333 22.5003 39.3335C20.5518 39.3335 18.5181 37.7275 16.9124 34.5161C15.3367 31.3646 14.3333 26.9404 14.3333 21.9995C14.3334 17.0588 15.3368 12.6354 16.9124 9.48389C18.5181 6.27251 20.5518 4.6665 22.5003 4.6665Z" stroke="url(#paint1_linear_297_1443)" stroke-width="2"/>
<path d="M37.5113 13.3334C38.4853 15.0208 38.1109 17.5844 36.1327 20.5805C34.1913 23.5208 30.8622 26.6015 26.5834 29.0719C22.3044 31.5424 17.9714 32.8855 14.4542 33.0966C10.8704 33.3117 8.46311 32.3541 7.48877 30.6669C6.51453 28.9794 6.88851 26.4152 8.8668 23.4189C10.8083 20.4785 14.138 17.3975 18.4169 14.9271C22.6957 12.4568 27.0283 11.114 30.5453 10.9028C34.1293 10.6877 36.537 11.6459 37.5113 13.3334Z" stroke="url(#paint2_linear_297_1443)" stroke-width="2"/>
<path d="M37.5113 30.6661C38.4853 28.9787 38.1109 26.4151 36.1327 23.419C34.1913 20.4787 30.8622 17.3981 26.5834 14.9277C22.3044 12.4572 17.9714 11.114 14.4542 10.9029C10.8704 10.6878 8.46311 11.6454 7.48877 13.3326C6.51453 15.0201 6.88851 17.5843 8.8668 20.5806C10.8083 23.521 14.138 26.602 18.4169 29.0725C22.6957 31.5427 27.0283 32.8855 30.5453 33.0967C34.1293 33.3118 36.537 32.3536 37.5113 30.6661Z" stroke="url(#paint3_linear_297_1443)" stroke-width="2"/>
<defs>
<linearGradient id="paint0_linear_297_1443" x1="18.8333" y1="21.9998" x2="26.1667" y2="21.9998" gradientUnits="userSpaceOnUse">
<stop stop-color="#0197BC"/>
<stop offset="1" stop-color="#4BB748"/>
</linearGradient>
<linearGradient id="paint1_linear_297_1443" x1="4.16666" y1="21.9998" x2="40.8333" y2="21.9998" gradientUnits="userSpaceOnUse">
<stop stop-color="#0197BC"/>
<stop offset="1" stop-color="#4BB748"/>
</linearGradient>
<linearGradient id="paint2_linear_297_1443" x1="13.3333" y1="6.12263" x2="31.6667" y2="37.8769" gradientUnits="userSpaceOnUse">
<stop stop-color="#0197BC"/>
<stop offset="1" stop-color="#4BB748"/>
</linearGradient>
<linearGradient id="paint3_linear_297_1443" x1="13.3333" y1="37.8769" x2="31.6667" y2="6.12262" gradientUnits="userSpaceOnUse">
<stop stop-color="#0197BC"/>
<stop offset="1" stop-color="#4BB748"/>
</linearGradient>
</defs>
</svg>
