<svg width="23" height="24" viewBox="0 0 23 24" fill="none" xmlns="http://www.w3.org/2000/svg">
<path d="M13.1579 20.9574C12.9894 21.2478 12.7476 21.4889 12.4566 21.6565C12.1657 21.8241 11.8358 21.9123 11.5 21.9123C11.1642 21.9123 10.8343 21.8241 10.5434 21.6565C10.2524 21.4889 10.0106 21.2478 9.84208 20.9574M17.25 8.49902C17.25 6.97403 16.6442 5.51149 15.5659 4.43316C14.4875 3.35483 13.025 2.74902 11.5 2.74902C9.97501 2.74902 8.51247 3.35483 7.43414 4.43316C6.3558 5.51149 5.75 6.97403 5.75 8.49902C5.75 15.2074 2.875 17.124 2.875 17.124H20.125C20.125 17.124 17.25 15.2074 17.25 8.49902Z" stroke="url(#paint0_linear_98_1843)" stroke-width="2" stroke-linecap="round" stroke-linejoin="round"/>
<defs>
<linearGradient id="paint0_linear_98_1843" x1="-5.75" y1="12.3307" x2="28.75" y2="12.3307" gradientUnits="userSpaceOnUse">
<stop stop-color="#0197BC"/>
<stop offset="1" stop-color="#4BB748"/>
</linearGradient>
</defs>
</svg>
