<svg width="34" height="34" viewBox="0 0 34 34" fill="none" xmlns="http://www.w3.org/2000/svg">
<path d="M28.6582 5.88477L29.2258 4.77108L29.2257 4.77101L28.6582 5.88477ZM29.5322 6.75879L30.6461 6.19145L30.646 6.1913L29.5322 6.75879ZM29.75 8.86621H31H29.75ZM29.75 13.8398H31H29.75ZM29.7432 13.9766L30.9568 14.2757L30.9569 14.2754L29.7432 13.9766ZM29.5596 14.1592L29.8572 15.3732L29.8587 15.3729L29.5596 14.1592ZM28.333 14.167V12.917H28.3329L28.333 14.167ZM25.5 17H24.25H25.5ZM28.333 19.833L28.3329 21.083H28.333V19.833ZM29.5596 19.8408L29.8587 18.6271L29.8572 18.6268L29.5596 19.8408ZM29.7432 20.0234L30.9569 19.7246L30.9568 19.7243L29.7432 20.0234ZM29.75 20.1602H31H29.75ZM29.75 25.1338H31H29.75ZM29.5322 27.2412L30.646 27.8087L30.6461 27.8085L29.5322 27.2412ZM28.6582 28.1152L29.2257 29.229L29.2258 29.2289L28.6582 28.1152ZM7.45019 28.333V27.083V28.333ZM5.34179 28.1152L4.77416 29.2289L4.7743 29.229L5.34179 28.1152ZM4.46777 27.2412L3.35393 27.8085L3.35401 27.8087L4.46777 27.2412ZM4.24999 25.1338H2.99999H4.24999ZM4.24999 20.1602H2.99999H4.24999ZM4.25683 20.0234L3.04315 19.7243L3.04308 19.7246L4.25683 20.0234ZM4.44042 19.8408L4.14273 18.6268L4.14126 18.6271L4.44042 19.8408ZM4.57714 19.833V18.583H4.57714L4.57714 19.833ZM5.66698 19.833V21.083H5.66712L5.66698 19.833ZM8.49999 17H9.74999H8.49999ZM5.66698 14.167L5.66712 12.917H5.66698V14.167ZM4.57714 14.167L4.57714 15.417H4.57714V14.167ZM4.44042 14.1592L4.14126 15.3729L4.14273 15.3732L4.44042 14.1592ZM4.25683 13.9766L3.04308 14.2754L3.04315 14.2757L4.25683 13.9766ZM4.24999 13.8398H2.99999H4.24999ZM4.24999 8.86621H2.99999H4.24999ZM4.46777 6.75879L3.35401 6.1913L3.35393 6.19146L4.46777 6.75879ZM5.34179 5.88477L4.7743 4.77101L4.77416 4.77108L5.34179 5.88477ZM7.45019 5.66699V6.91699V5.66699ZM26.5498 5.66699V6.91699C27.1306 6.91699 27.491 6.91791 27.762 6.94C28.0185 6.96091 28.0826 6.99439 28.0907 6.99853L28.6582 5.88477L29.2257 4.77101C28.806 4.55715 28.3759 4.48175 27.9652 4.44827C27.5689 4.41597 27.0891 4.41699 26.5498 4.41699V5.66699ZM28.6582 5.88477L28.0906 6.99845C28.2318 7.07043 28.3466 7.18533 28.4185 7.32628L29.5322 6.75879L30.646 6.1913C30.3344 5.57975 29.837 5.0826 29.2258 4.77108L28.6582 5.88477ZM29.5322 6.75879L28.4184 7.32612C28.4226 7.33438 28.456 7.39849 28.4769 7.6547C28.499 7.92548 28.5 8.28571 28.5 8.86621H29.75H31C31 8.32706 31.001 7.84745 30.9687 7.45137C30.9352 7.04071 30.8597 6.61095 30.6461 6.19145L29.5322 6.75879ZM29.75 8.86621H28.5V13.8398H29.75H31V8.86621H29.75ZM29.75 13.8398H28.5C28.5 13.861 28.5 13.8711 28.5 13.8805C28.4999 13.8894 28.4998 13.8862 28.5002 13.8775C28.5007 13.8629 28.5036 13.7826 28.5294 13.6777L29.7432 13.9766L30.9569 14.2754C30.99 14.1411 30.9963 14.0281 30.9984 13.9704C31.0003 13.9192 31 13.8611 31 13.8398H29.75ZM29.7432 13.9766L28.5295 13.6774C28.6202 13.3093 28.9068 13.0327 29.2604 12.9455L29.5596 14.1592L29.8587 15.3729C30.3928 15.2412 30.8216 14.8243 30.9568 14.2757L29.7432 13.9766ZM29.5596 14.1592L29.262 12.9451C29.3553 12.9222 29.4268 12.9182 29.4461 12.9173C29.4563 12.9168 29.4609 12.9168 29.455 12.9169C29.4492 12.9169 29.44 12.917 29.4228 12.917V14.167V15.417C29.439 15.417 29.6483 15.4244 29.8572 15.3732L29.5596 14.1592ZM29.4228 14.167V12.917H28.333V14.167V15.417H29.4228V14.167ZM28.333 14.167L28.3329 12.917C26.0781 12.9173 24.25 14.7448 24.25 17H25.5H26.75C26.75 16.1258 27.4586 15.4171 28.3331 15.417L28.333 14.167ZM25.5 17H24.25C24.25 19.2552 26.0781 21.0827 28.3329 21.083L28.333 19.833L28.3331 18.583C27.4586 18.5829 26.75 17.8742 26.75 17H25.5ZM28.333 19.833V21.083H29.4228V19.833V18.583H28.333V19.833ZM29.4228 19.833V21.083C29.44 21.083 29.4492 21.0831 29.455 21.0831C29.4609 21.0832 29.4563 21.0832 29.4461 21.0827C29.4268 21.0818 29.3553 21.0778 29.262 21.0549L29.5596 19.8408L29.8572 18.6268C29.6483 18.5756 29.439 18.583 29.4228 18.583V19.833ZM29.5596 19.8408L29.2604 21.0545C28.9068 20.9673 28.6202 20.6907 28.5295 20.3226L29.7432 20.0234L30.9568 19.7243C30.8216 19.1757 30.3928 18.7588 29.8587 18.6271L29.5596 19.8408ZM29.7432 20.0234L28.5294 20.3223C28.5036 20.2174 28.5007 20.1371 28.5002 20.1225C28.4998 20.1138 28.4999 20.1106 28.5 20.1195C28.5 20.1289 28.5 20.139 28.5 20.1602H29.75H31C31 20.1389 31.0003 20.0808 30.9984 20.0296C30.9963 19.9719 30.99 19.8589 30.9569 19.7246L29.7432 20.0234ZM29.75 20.1602H28.5V25.1338H29.75H31V20.1602H29.75ZM29.75 25.1338H28.5C28.5 25.7143 28.499 26.0745 28.4769 26.3453C28.456 26.6015 28.4226 26.6656 28.4184 26.6739L29.5322 27.2412L30.6461 27.8085C30.8597 27.3891 30.9352 26.9593 30.9687 26.5486C31.001 26.1526 31 25.6729 31 25.1338H29.75ZM29.5322 27.2412L28.4185 26.6737C28.3466 26.8147 28.2318 26.9296 28.0906 27.0015L28.6582 28.1152L29.2258 29.2289C29.837 28.9174 30.3344 28.4202 30.646 27.8087L29.5322 27.2412ZM28.6582 28.1152L28.0907 27.0015C28.0826 27.0056 28.0185 27.0391 27.762 27.06C27.491 27.0821 27.1306 27.083 26.5498 27.083V28.333V29.583C27.0891 29.583 27.5689 29.584 27.9652 29.5517C28.3759 29.5182 28.806 29.4428 29.2257 29.229L28.6582 28.1152ZM26.5498 28.333V27.083H7.45019V28.333V29.583H26.5498V28.333ZM7.45019 28.333V27.083C6.8694 27.083 6.50895 27.0821 6.23794 27.06C5.98147 27.0391 5.91739 27.0056 5.90928 27.0015L5.34179 28.1152L4.7743 29.229C5.19401 29.4428 5.62408 29.5183 6.03482 29.5517C6.43104 29.584 6.91088 29.583 7.45019 29.583V28.333ZM5.34179 28.1152L5.90942 27.0015C5.76819 26.9296 5.65334 26.8147 5.58152 26.6737L4.46777 27.2412L3.35401 27.8087C3.66561 28.4202 4.16295 28.9174 4.77416 29.2289L5.34179 28.1152ZM4.46777 27.2412L5.5816 26.6739C5.5774 26.6656 5.54394 26.6015 5.52304 26.3453C5.50094 26.0745 5.49999 25.7143 5.49999 25.1338H4.24999H2.99999C2.99999 25.6729 2.999 26.1526 3.03132 26.5486C3.06483 26.9593 3.14026 27.3891 3.35393 27.8085L4.46777 27.2412ZM4.24999 25.1338H5.49999V20.1602H4.24999H2.99999V25.1338H4.24999ZM4.24999 20.1602H5.49999C5.49999 20.139 5.49997 20.1289 5.50002 20.1195C5.50007 20.1106 5.50015 20.1138 5.49983 20.1225C5.49929 20.1371 5.4964 20.2174 5.47058 20.3223L4.25683 20.0234L3.04308 19.7246C3.01 19.8589 3.0037 19.9719 3.00156 20.0296C2.99965 20.0808 2.99999 20.1389 2.99999 20.1602H4.24999ZM4.25683 20.0234L5.47051 20.3226C5.37976 20.6907 5.09315 20.9673 4.73959 21.0545L4.44042 19.8408L4.14126 18.6271C3.60725 18.7588 3.17837 19.1757 3.04315 19.7243L4.25683 20.0234ZM4.44042 19.8408L4.73811 21.0549C4.64473 21.0778 4.57321 21.0818 4.55386 21.0827C4.54361 21.0832 4.53909 21.0832 4.545 21.0831C4.55078 21.0831 4.55999 21.083 4.57714 21.083L4.57714 19.833L4.57714 18.583C4.56109 18.583 4.35164 18.5756 4.14273 18.6268L4.44042 19.8408ZM4.57714 19.833V21.083H5.66698V19.833V18.583H4.57714V19.833ZM5.66698 19.833L5.66712 21.083C7.92189 21.0828 9.74999 19.2552 9.74999 17H8.49999H7.24999C7.24999 17.8742 6.5414 18.5829 5.66685 18.583L5.66698 19.833ZM8.49999 17H9.74999C9.74999 14.7448 7.92189 12.9172 5.66712 12.917L5.66698 14.167L5.66685 15.417C6.5414 15.4171 7.24999 16.1258 7.24999 17H8.49999ZM5.66698 14.167V12.917H4.57714V14.167V15.417H5.66698V14.167ZM4.57714 14.167L4.57714 12.917C4.55999 12.917 4.55078 12.9169 4.545 12.9169C4.53909 12.9168 4.54361 12.9168 4.55386 12.9173C4.57321 12.9182 4.64473 12.9222 4.73811 12.9451L4.44042 14.1592L4.14273 15.3732C4.35164 15.4244 4.56109 15.417 4.57714 15.417L4.57714 14.167ZM4.44042 14.1592L4.73959 12.9455C5.09315 13.0327 5.37976 13.3093 5.47051 13.6774L4.25683 13.9766L3.04315 14.2757C3.17837 14.8243 3.60725 15.2412 4.14126 15.3729L4.44042 14.1592ZM4.25683 13.9766L5.47058 13.6777C5.4964 13.7826 5.49929 13.8629 5.49983 13.8775C5.50015 13.8862 5.50007 13.8894 5.50002 13.8805C5.49997 13.8711 5.49999 13.861 5.49999 13.8398H4.24999H2.99999C2.99999 13.8611 2.99965 13.9192 3.00156 13.9704C3.0037 14.0281 3.01 14.1411 3.04308 14.2754L4.25683 13.9766ZM4.24999 13.8398H5.49999V8.86621H4.24999H2.99999V13.8398H4.24999ZM4.24999 8.86621H5.49999C5.49999 8.28571 5.50094 7.92548 5.52304 7.6547C5.54394 7.39849 5.5774 7.33437 5.5816 7.32612L4.46777 6.75879L3.35393 6.19146C3.14026 6.61095 3.06483 7.04072 3.03132 7.45137C2.999 7.84745 2.99999 8.32706 2.99999 8.86621H4.24999ZM4.46777 6.75879L5.58152 7.32628C5.65334 7.18533 5.76819 7.07043 5.90942 6.99845L5.34179 5.88477L4.77416 4.77108C4.16295 5.08261 3.66561 5.57975 3.35401 6.1913L4.46777 6.75879ZM5.34179 5.88477L5.90928 6.99852C5.91739 6.99439 5.98147 6.96091 6.23794 6.94C6.50895 6.91791 6.8694 6.91699 7.45019 6.91699V5.66699V4.41699C6.91088 4.41699 6.43104 4.41597 6.03482 4.44827C5.62408 4.48175 5.19401 4.55715 4.7743 4.77101L5.34179 5.88477ZM7.45019 5.66699V6.91699H26.5498V5.66699V4.41699H7.45019V5.66699Z" fill="url(#paint0_linear_98_1894)"/>
<path d="M20 13V15" stroke="url(#paint1_linear_98_1894)" stroke-width="2.5" stroke-linecap="round"/>
<path d="M20 6V8" stroke="url(#paint2_linear_98_1894)" stroke-width="2.5" stroke-linecap="round"/>
<path d="M20 19V21" stroke="url(#paint3_linear_98_1894)" stroke-width="2.5" stroke-linecap="round"/>
<path d="M20 26V28" stroke="url(#paint4_linear_98_1894)" stroke-width="2.5" stroke-linecap="round"/>
<defs>
<linearGradient id="paint0_linear_98_1894" x1="-8.50001" y1="17" x2="42.5" y2="17" gradientUnits="userSpaceOnUse">
<stop stop-color="#0197BC"/>
<stop offset="1" stop-color="#4BB748"/>
</linearGradient>
<linearGradient id="paint1_linear_98_1894" x1="19.5" y1="14" x2="21.5" y2="14" gradientUnits="userSpaceOnUse">
<stop stop-color="#0197BC"/>
<stop offset="1" stop-color="#4BB748"/>
</linearGradient>
<linearGradient id="paint2_linear_98_1894" x1="19.5" y1="7" x2="21.5" y2="7" gradientUnits="userSpaceOnUse">
<stop stop-color="#0197BC"/>
<stop offset="1" stop-color="#4BB748"/>
</linearGradient>
<linearGradient id="paint3_linear_98_1894" x1="19.5" y1="20" x2="21.5" y2="20" gradientUnits="userSpaceOnUse">
<stop stop-color="#0197BC"/>
<stop offset="1" stop-color="#4BB748"/>
</linearGradient>
<linearGradient id="paint4_linear_98_1894" x1="19.5" y1="27" x2="21.5" y2="27" gradientUnits="userSpaceOnUse">
<stop stop-color="#0197BC"/>
<stop offset="1" stop-color="#4BB748"/>
</linearGradient>
</defs>
</svg>
