<svg width="42" height="41" viewBox="0 0 42 41" fill="none" xmlns="http://www.w3.org/2000/svg">
<path d="M34.6667 20.4998V37.5832H7.33333V20.4998M21 37.5832V11.9582M21 11.9582H13.3125C12.1798 11.9582 11.0935 11.5082 10.2926 10.7073C9.49163 9.90634 9.04166 8.82003 9.04166 7.68734C9.04166 6.55464 9.49163 5.46834 10.2926 4.6674C11.0935 3.86647 12.1798 3.4165 13.3125 3.4165C19.2917 3.4165 21 11.9582 21 11.9582ZM21 11.9582H28.6875C29.8202 11.9582 30.9065 11.5082 31.7074 10.7073C32.5084 9.90634 32.9583 8.82003 32.9583 7.68734C32.9583 6.55464 32.5084 5.46834 31.7074 4.6674C30.9065 3.86647 29.8202 3.4165 28.6875 3.4165C22.7083 3.4165 21 11.9582 21 11.9582ZM3.91666 11.9582H38.0833V20.4998H3.91666V11.9582Z" stroke="url(#paint0_linear_297_1451)" stroke-width="2" stroke-linecap="round" stroke-linejoin="round"/>
<defs>
<linearGradient id="paint0_linear_297_1451" x1="-13.1667" y1="20.4998" x2="55.1667" y2="20.4998" gradientUnits="userSpaceOnUse">
<stop stop-color="#0197BC"/>
<stop offset="1" stop-color="#4BB748"/>
</linearGradient>
</defs>
</svg>
