<svg width="24" height="25" viewBox="0 0 24 25" fill="none" xmlns="http://www.w3.org/2000/svg">
<path d="M4.15838 14.7632C3.44537 13.5748 3.44537 12.0902 4.15838 10.9019C4.37596 10.5393 4.73641 10.2852 5.1511 10.2023L6.84413 9.86369C6.94499 9.84352 7.03591 9.78942 7.10176 9.7104L9.17085 7.2275C10.3534 5.80844 10.9447 5.0989 11.4723 5.28994C12 5.48098 12 6.40459 12 8.2518L12 17.4132C12 19.2605 12 20.1841 11.4723 20.3751C10.9447 20.5661 10.3534 19.8566 9.17085 18.4375L7.10176 15.9546C7.03591 15.8756 6.94499 15.8215 6.84413 15.8013L5.1511 15.4627C4.73641 15.3798 4.37596 15.1258 4.15838 14.7632Z" fill="#363F3D"/>
<path d="M14.5355 9.29699C15.4684 10.2298 15.9948 11.4936 16 12.8128C16.0052 14.1321 15.4888 15.3999 14.5633 16.3401" stroke="#363F3D" stroke-width="2" stroke-linecap="round"/>
<path d="M18.6569 7.17566C20.1494 8.66823 20.9916 10.6902 20.9999 12.801C21.0083 14.9118 20.182 16.9403 18.7012 18.4446" stroke="#363F3D" stroke-width="2" stroke-linecap="round"/>
</svg>
