<svg width="26" height="27" viewBox="0 0 26 27" fill="none" xmlns="http://www.w3.org/2000/svg">
<path d="M10.0208 5.6459V18.4292M15.9792 8.5709V21.3542M9.204 5.30898L4.60092 7.9859C4.43716 8.0812 4.30126 8.21779 4.20678 8.38203C4.1123 8.54627 4.06255 8.73242 4.0625 8.9219V20.2817C4.06236 20.4723 4.11249 20.6595 4.20782 20.8245C4.30315 20.9895 4.44031 21.1264 4.60546 21.2214C4.77061 21.3165 4.95791 21.3663 5.14846 21.3658C5.33901 21.3654 5.52606 21.3147 5.69075 21.2188L9.204 19.1746C9.45206 19.0303 9.73389 18.9543 10.0208 18.9543C10.3078 18.9543 10.5896 19.0303 10.8377 19.1746L15.1623 21.6901C15.4104 21.8343 15.6922 21.9103 15.9792 21.9103C16.2661 21.9103 16.5479 21.8343 16.796 21.6901L21.3991 19.0121C21.5628 18.9168 21.6987 18.7802 21.7932 18.6159C21.8877 18.4517 21.9374 18.2655 21.9375 18.0761V6.71731C21.9376 6.52676 21.8875 6.33955 21.7922 6.17456C21.6969 6.00957 21.5597 5.87265 21.3945 5.7776C21.2294 5.68255 21.0421 5.63275 20.8515 5.63321C20.661 5.63367 20.4739 5.68438 20.3093 5.78023L16.796 7.82448C16.5479 7.96872 16.2661 8.0447 15.9792 8.0447C15.6922 8.0447 15.4104 7.96872 15.1623 7.82448L10.8377 5.31006C10.5896 5.16583 10.3078 5.08984 10.0208 5.08984C9.73389 5.08984 9.45206 5.16474 9.204 5.30898Z" stroke="#363F3D" stroke-linejoin="round"/>
</svg>
