<svg width="56" height="56" viewBox="0 0 56 56" fill="none" xmlns="http://www.w3.org/2000/svg">
<path d="M11.9583 48.625C10.6979 48.625 9.60938 48.1858 8.69271 47.3073C7.81424 46.3906 7.375 45.3021 7.375 44.0417V11.9583C7.375 10.6979 7.81424 9.62847 8.69271 8.75C9.60938 7.83333 10.6979 7.375 11.9583 7.375H44.0417C45.3021 7.375 46.3715 7.83333 47.25 8.75C48.1667 9.62847 48.625 10.6979 48.625 11.9583V44.0417C48.625 45.3021 48.1667 46.3906 47.25 47.3073C46.3715 48.1858 45.3021 48.625 44.0417 48.625H11.9583ZM11.9583 44.0417H44.0417V11.9583H11.9583V44.0417ZM14.25 39.4583H41.75L33.1563 28L26.2813 37.1667L21.125 30.2917L14.25 39.4583ZM11.9583 44.0417V11.9583V44.0417Z" fill="#727272"/>
</svg>
